<svg id="sprigs-logo" class="sprigs__svg #2C2C2C" width="1184px" height="218px" viewBox="0 0 1184 218" version="1.1" xmlns="http://www.w3.org/2000/svg" xmlns:xlink="http://www.w3.org/1999/xlink">


    <!-- S  -->
    <path d="M137.3,57.937 L131.432,57.937 C130.06,57.937 128.69,57.497 127.323,56.616 C125.953,55.736 125.17,54.223 124.975,52.067 C123.802,42.288 118.566,34.218 109.277,27.858 C99.982,21.503 88.294,18.32 74.209,18.32 C59.142,18.32 47.161,21.255 38.262,27.124 C29.357,32.993 24.908,41.797 24.908,53.535 C24.908,61.165 26.912,67.473 30.925,72.463 C34.932,77.453 40.947,81.758 48.973,85.375 C56.993,88.998 68.827,93.349 84.48,98.434 C100.519,103.524 113.042,108.412 122.042,113.106 C131.038,117.801 137.84,123.479 142.438,130.127 C147.033,136.78 149.334,145.386 149.334,155.949 C149.334,173.556 142.777,187.302 129.672,197.179 C116.564,207.061 98.568,211.999 75.678,211.999 C60.418,211.999 47.162,209.506 35.915,204.516 C24.662,199.529 16.056,193.026 10.091,185.001 C4.121,176.981 0.943,168.376 0.553,159.178 C0.553,157.614 1.141,156.243 2.315,155.069 C3.488,153.896 4.956,153.309 6.715,153.309 L12.585,153.309 C16.107,153.309 18.257,155.267 19.04,159.179 C20.407,168.569 25.79,176.786 35.182,183.828 C44.572,190.871 58.071,194.393 75.678,194.393 C94.262,194.393 108.104,191.017 117.2,184.269 C126.298,177.519 130.846,168.082 130.846,155.949 C130.846,148.517 128.645,142.406 124.242,137.608 C119.842,132.818 113.43,128.613 105.021,124.99 C96.608,121.373 83.892,116.824 66.872,111.344 C51.805,106.457 40.021,101.659 31.512,96.965 C23.003,92.271 16.692,86.501 12.584,79.651 C8.477,72.806 6.422,64.099 6.422,53.534 C6.422,43.556 9.108,34.561 14.49,26.537 C19.87,18.517 27.645,12.208 37.82,7.609 C47.99,3.015 60.123,0.713 74.209,0.713 C88.684,0.713 101.105,3.309 111.479,8.489 C121.846,13.675 129.671,20.227 134.954,28.151 C140.237,36.075 143.07,44.047 143.466,52.067 C143.464,53.637 142.922,55.002 141.849,56.176 C140.771,57.35 139.254,57.937 137.3,57.937 Z" class="animatable" style="fill: #2C2C2C; stroke-dasharray: 1081.48px; stroke-dashoffset: 0px;"></path>

    <!-- P -->
    <path d="M318.801,19.348 C330.831,29.816 336.847,44.833 336.847,64.392 C336.847,83.958 330.831,98.975 318.801,109.437 C306.769,119.906 290.285,125.137 269.354,125.137 L210.076,125.137 L210.076,202.61 C210.076,204.568 209.439,206.131 208.17,207.305 C206.895,208.478 205.28,209.065 203.326,209.065 L198.044,209.065 C196.087,209.065 194.524,208.478 193.35,207.305 C192.177,206.13 191.589,204.568 191.589,202.61 L191.589,10.397 C191.589,8.444 192.177,6.83 193.35,5.556 C194.525,4.285 196.087,3.648 198.044,3.648 L269.355,3.648 C290.285,3.648 306.769,8.884 318.801,19.348 L318.801,19.348 Z M267.886,107.531 C284.708,107.531 297.327,103.863 305.742,96.526 C314.151,89.191 318.359,78.48 318.359,64.393 C318.359,50.308 314.151,39.597 305.742,32.261 C297.327,24.924 284.708,21.257 267.886,21.257 L210.075,21.257 L210.075,107.532 L267.886,107.532 L267.886,107.531 Z" class="animatable" style="fill: #2C2C2C; stroke-dasharray: 996.926px; stroke-dashoffset: 0px;"></path>

    <!-- R -->
    <path d="M500.298,18.615 C512.23,28.592 518.199,43.366 518.199,62.926 C518.199,78.383 514.385,90.855 506.755,100.342 C499.125,109.833 488.165,116.238 473.889,119.563 L521.135,199.969 C521.72,201.143 522.015,202.221 522.015,203.196 C522.015,204.764 521.427,206.132 520.252,207.306 C519.079,208.479 517.709,209.066 516.145,209.066 L512.624,209.066 C509.69,209.066 507.489,208.433 506.022,207.16 C504.554,205.889 503.036,203.885 501.473,201.143 L454.814,122.204 L394.362,122.204 L394.362,202.611 C394.362,204.569 393.725,206.132 392.455,207.306 C391.18,208.479 389.566,209.066 387.612,209.066 L382.33,209.066 C380.372,209.066 378.809,208.479 377.635,207.306 C376.462,206.131 375.875,204.569 375.875,202.611 L375.875,10.397 C375.875,8.444 376.462,6.83 377.635,5.556 C378.81,4.285 380.372,3.648 382.33,3.648 L450.705,3.648 C471.833,3.648 488.363,8.637 500.298,18.615 L500.298,18.615 Z M449.237,104.596 C466.258,104.596 478.922,101.125 487.239,94.178 C495.553,87.236 499.711,76.82 499.711,62.926 C499.711,49.038 495.554,38.62 487.239,31.673 C478.922,24.732 466.259,21.256 449.237,21.256 L394.361,21.256 L394.361,104.596 L449.237,104.596 L449.237,104.596 Z" class="animatable" style="fill: #2C2C2C; stroke-dasharray: 1177.8px; stroke-dashoffset: 0px;"></path>

    <!-- I -->
    <path d="M580.41,207.306 C579.237,208.479 577.668,209.066 575.716,209.066 L570.141,209.066 C568.183,209.066 566.619,208.479 565.444,207.306 C564.271,206.131 563.684,204.569 563.684,202.611 L563.684,10.104 C563.684,8.15 564.271,6.583 565.444,5.409 C566.619,4.236 568.183,3.649 570.141,3.649 L575.716,3.649 C577.668,3.649 579.237,4.236 580.41,5.409 C581.585,6.583 582.171,8.151 582.171,10.104 L582.171,202.61 C582.171,204.568 581.585,206.131 580.41,207.306 L580.41,207.306 Z" class="animatable" style="fill: #2C2C2C; stroke-dasharray: 437.385px; stroke-dashoffset: 0px;"></path>

    <!-- G -->
    <path d="M647.609,106.356 C647.609,118.095 647.705,126.898 647.902,132.768 C648.681,153.897 654.307,169.45 664.775,179.427 C675.239,189.404 689.573,194.394 707.765,194.394 C725.959,194.394 740.634,189.212 751.784,178.839 C762.936,168.472 768.512,153.117 768.512,132.768 L768.512,117.801 L717.45,117.801 C715.492,117.801 713.929,117.17 712.756,115.895 C711.581,114.625 710.995,113.011 710.995,111.053 L710.995,106.944 C710.995,104.992 711.581,103.376 712.756,102.103 C713.93,100.833 715.492,100.195 717.45,100.195 L780.249,100.195 C782.4,100.195 784.063,100.782 785.238,101.957 C786.413,103.13 786.998,104.795 786.998,106.945 L786.998,132.769 C786.998,148.424 783.868,162.216 777.608,174.146 C771.345,186.081 762.248,195.375 750.317,202.025 C738.382,208.676 724.2,212 707.766,212 C683.309,212 664.337,204.958 650.837,190.871 C637.338,176.786 630.194,157.907 629.415,134.235 C629.218,128.365 629.121,119.076 629.121,106.356 C629.121,93.642 629.218,84.349 629.415,78.479 C630.194,54.811 637.338,35.928 650.837,21.842 C664.337,7.756 683.309,0.714 707.766,0.714 C724.393,0.714 738.382,3.845 749.73,10.104 C761.075,16.368 769.539,23.75 775.116,32.26 C780.69,40.77 783.671,48.354 784.064,55.002 L784.064,55.589 C784.064,57.157 783.479,58.427 782.304,59.404 C781.131,60.384 779.663,60.871 777.902,60.871 L771.447,60.871 C769.686,60.871 768.412,60.481 767.632,59.696 C766.848,58.917 766.065,57.349 765.285,55.001 C761.955,44.634 755.551,35.926 746.063,28.884 C736.571,21.841 723.805,18.319 707.766,18.319 C689.574,18.319 675.24,23.308 664.776,33.285 C654.308,43.263 648.682,58.816 647.903,79.945 C647.705,85.814 647.609,94.619 647.609,106.356 L647.609,106.356 Z" class="animatable" style="fill: #2C2C2C; stroke-dasharray: 1169.33px; stroke-dashoffset: 0px;"></path>

    <!-- S -->
    <path d="M959.986,56.176 C958.908,57.35 957.389,57.937 955.437,57.937 L949.567,57.937 C948.197,57.937 946.825,57.497 945.46,56.616 C944.088,55.736 943.305,54.223 943.112,52.067 C941.937,42.288 936.701,34.218 927.412,27.858 C918.117,21.503 906.43,18.32 892.345,18.32 C877.278,18.32 865.296,21.255 856.397,27.124 C847.492,32.993 843.044,41.797 843.044,53.535 C843.044,61.165 845.049,67.473 849.06,72.463 C853.069,77.453 859.082,81.758 867.108,85.375 C875.128,88.998 886.962,93.349 902.615,98.434 C918.654,103.524 931.177,108.412 940.178,113.106 C949.173,117.801 955.974,123.479 960.572,130.127 C965.167,136.78 967.468,145.386 967.468,155.949 C967.468,173.556 960.912,187.302 947.808,197.179 C934.699,207.061 916.702,211.999 893.812,211.999 C878.553,211.999 865.296,209.506 854.049,204.516 C842.797,199.529 834.19,193.026 828.225,185.001 C822.255,176.981 819.077,168.376 818.687,159.178 C818.687,157.614 819.275,156.243 820.45,155.069 C821.622,153.896 823.09,153.309 824.851,153.309 L830.719,153.309 C834.241,153.309 836.391,155.267 837.176,159.179 C838.541,168.569 843.926,176.786 853.316,183.828 C862.706,190.871 876.206,194.393 893.812,194.393 C912.396,194.393 926.238,191.017 935.335,184.269 C944.432,177.519 948.981,168.082 948.981,155.949 C948.981,148.517 946.78,142.406 942.379,137.608 C937.977,132.818 931.566,128.613 923.156,124.99 C914.743,121.373 902.029,116.824 885.008,111.344 C869.942,106.457 858.156,101.659 849.647,96.965 C841.138,92.271 834.829,86.501 830.719,79.651 C826.612,72.806 824.557,64.099 824.557,53.534 C824.557,43.556 827.245,34.561 832.627,26.537 C838.005,18.517 845.781,12.208 855.955,7.609 C866.127,3.015 878.26,0.713 892.345,0.713 C906.82,0.713 919.241,3.309 929.614,8.489 C939.981,13.675 947.808,20.227 953.091,28.151 C958.374,36.075 961.205,44.047 961.601,52.067 C961.6,53.637 961.059,55.002 959.986,56.176 L959.986,56.176 Z" class="animatable" style="fill: #2C2C2C; stroke-dasharray: 1081.48px; stroke-dashoffset: 0px;"></path>

    <!-- _ -->
      <path d="M1003.562,215.521 C1002.389,214.348 1001.802,212.78 1001.802,210.826 L1001.802,206.719 C1001.802,204.765 1002.389,203.197 1003.562,202.025 C1004.737,200.85 1006.299,200.262 1008.257,200.262 L1176.992,200.262 C1178.946,200.262 1180.513,200.85 1181.688,202.025 C1182.861,203.197 1183.449,204.765 1183.449,206.719 L1183.449,210.826 C1183.449,212.78 1182.861,214.348 1181.688,215.521 C1180.513,216.696 1178.946,217.283 1176.992,217.283 L1008.257,217.283 C1006.299,217.282 1004.736,216.695 1003.562,215.521 L1003.562,215.521 Z" class="animatable" style="fill: #2C2C2C; stroke-dasharray: 386.908px; stroke-dashoffset: 0px;"></path>
  </svg>